<?xml version="1.0" encoding="UTF-8"?><svg id="Layer_2" xmlns="http://www.w3.org/2000/svg" viewBox="0 0 165.45 48.24"><defs><style>.cls-1{fill:#fff;stroke-width:0px;}</style></defs><g id="Layer_1-2"><polygon class="cls-1" points="0 48.24 7.68 48.24 7.68 30.3 24 30.3 24 23.4 7.68 23.4 7.68 11.46 27.12 11.46 27.12 4.38 0 4.38 0 48.24"/><polygon class="cls-1" points="41.7 4.38 34.02 4.38 34.02 48.24 60.06 48.24 60.06 41.16 41.7 41.16 41.7 4.38"/><rect class="cls-1" x="66.3" y="4.38" width="7.68" height="43.86"/><polygon class="cls-1" points="111.9 11.22 111.9 4.38 81.18 4.38 81.18 11.46 102.36 11.46 80.7 41.1 80.7 48.24 112.26 48.24 112.26 41.16 90.06 41.16 111.9 11.22"/><polygon class="cls-1" points="151.69 38.1 151.69 4.38 147.18 4.38 144.61 4.38 115.98 4.38 122.98 11.46 137.64 11.46 115.98 41.1 115.98 48.24 151.69 48.24 151.69 41.16 125.34 41.16 144.61 14.74 144.61 31.1 151.69 38.1"/><path class="cls-1" d="M161.07,0c-2.43,0-4.38,1.96-4.38,4.38s1.95,4.38,4.38,4.38,4.38-1.96,4.38-4.38-1.95-4.38-4.38-4.38ZM161.07,8.02c-2.02,0-3.65-1.63-3.65-3.65s1.63-3.65,3.65-3.65,3.65,1.63,3.65,3.65-1.63,3.65-3.65,3.65Z"/><path class="cls-1" d="M161.93,4.75c.34-.13.77-.47.77-1.16s-.45-1.29-1.42-1.29h-1.52s-.09.04-.09.09v4.02s.04.09.09.09h.54s.09-.04.09-.09v-1.53h.86l.73,1.57s.04.04.06.04h.6s.09-.04.09-.09v-.04l-.79-1.61ZM161.18,4.32h-.79v-1.44h.82c.47,0,.79.26.79.73s-.3.71-.82.71Z"/></g></svg>